<?xml version="1.0" encoding="utf-8"?>
<!-- Generator: Adobe Illustrator 16.0.0, SVG Export Plug-In . SVG Version: 6.00 Build 0)  -->
<!DOCTYPE svg PUBLIC "-//W3C//DTD SVG 1.1//EN" "http://www.w3.org/Graphics/SVG/1.1/DTD/svg11.dtd">
<svg version="1.1" id="Layer_1" xmlns="http://www.w3.org/2000/svg" xmlns:xlink="http://www.w3.org/1999/xlink" x="0px" y="0px"
	 width="512px" height="218.509px" viewBox="0 146.731 512 218.509" enable-background="new 0 146.731 512 218.509"
	 xml:space="preserve">
<g>
	<path d="M376.971,215.543c-0.111,0.029-0.222,0.047-0.336,0.07C376.746,215.587,376.856,215.587,376.971,215.543z"/>
	<path d="M441.756,291.313l-0.1-0.07l-0.073,0.029C441.642,291.279,441.699,291.293,441.756,291.313z"/>
	<path d="M437.982,291.873c-8.454,2.299-17.113,3.766-25.853,4.377c9.539-0.321,19.66-2.043,29.474-4.984
		C440.859,291.09,440.054,291.297,437.982,291.873z"/>
	<g>
		<polygon fill="#0066CC" points="482.698,175.563 472.543,179.252 465.849,170.173 466.473,181.461 456.35,185.129 
			466.989,188.707 467.576,200.31 473.392,190.925 483.868,194.383 476.899,185.106 		"/>
		<polygon fill="#0066CC" points="507.258,156.878 511.197,150.388 504.302,152.9 499.749,146.731 500.179,154.397 493.294,156.901 
			500.52,159.321 500.926,167.211 504.871,160.832 512,163.182 		"/>
		<path fill="#0066CC" d="M477.174,264.01c-7.365,4.961-13.079,8.17-20.509,10.773c-3.088,1.076-6.464-1.436-1.559-3.846
			c5.778-2.84,17.658-9.17,24.081-14.025c2.589-1.961,2.994-4.482,2.862-7.777c-0.131-3.294-0.703-7.003-3.662-4.397
			c-8.413,7.386-18.904,15.665-25.263,19.015c-3.266,1.707-7.433-0.928-3.144-3.715c6.421-4.149,21.844-16.318,27.942-22.4
			c2.962-2.962,2.279-3.228,1.077-8.542c-1.369-6.096-3.896-6.344-6.129-2.69c-3.551,5.836-20.284,21.463-25.625,24.355
			c-3.904,2.13-7.619-0.365-3.236-3.254c5.151-3.394,22.914-21.449,26.655-28.668c2.451-4.725,0.841-7.707-1.979-11.457
			c-2.401-3.21-3.618-3.925-6.006-0.415c-13.424,19.742-23.865,33.463-40.816,52.704c-7.197,8.171-15.032,13.858-21.012,15.959
			c-6.598,2.335-13.814,2.919-23.851-9.612c-3.596-4.786-3.919-6.759-2.604-10.648c2.268-6.764,20.066,5.075,20.527-10.917
			c0.23-8.463-6.067-26.054-13.599-28.826c-1.407-0.438-2.919-0.339-4.378-0.082c-0.11,0.029-0.222,0.047-0.336,0.07
			c-0.219,0.044-0.435,0.084-0.653,0.14c-11.764,2.746-9.893,13.552-11.319,24.685c-0.61,1.973-3.978,4.085-7.322,5.565
			c-7.348-34.502-19.018-51.519-35.845-67.566c-3.65-3.502-6.314-2.994-9.756-2.717c-2.305,0.178-2.696,1.226,0.421,4.377
			c6.233,6.327,10.433,11.343,14.375,18.16c1.628,2.836-0.228,6.618-3.502,2.247c-3.853-5.165-12.274-15.653-18.229-21.072
			c-2.42-2.183-4.962-2.122-8.172-1.375s-6.746,1.976-3.642,4.407c8.815,6.901,18.896,15.679,23.346,21.303
			c2.291,2.901,0.476,7.482-3.064,3.776c-5.273-5.527-20.08-18.449-27.181-23.308c-3.455-2.373-3.589-1.654-8.603,0.514
			c-5.72,2.469-5.509,5.002-1.506,6.508c6.397,2.419,24.837,15.974,28.678,20.679c2.808,3.449,1.056,7.552-2.606,3.793
			c-4.283-4.427-25.31-18.548-33.092-20.886c-5.104-1.538-7.742,0.583-10.903,4.05c-2.696,2.959-3.253,4.451,0.7,5.979
			c21.656,8.381,49.537,23.664,65.66,38.713c1.063,0.989,5.702,5.524,5.994,5.836c4.488,5.116,6.365,8.787,6.729,12.727
			c-4.455,4.784-8.46,9.969-11.965,15.486c-2.478,3.891-2.801,3.998-6.683,11.924c-6.484,13.211-1.532,23.416,8.419,27.05
			c7.214,2.587,14.229,5.696,20.988,9.306c10.867,5.889,14.279,10.354,13.348,13.652c-0.931,3.297-3.793,4.628-7.444,3.533
			c-3.104-0.954-8.112-4.531-10.114-5.988c-5.335-3.898-13.319-9.473-20.623-12.84c-6.694-3.1-14.332-5.375-15.823,4.231
			c-1.24,7.996,3.412,19.751,5.896,22.111s5.112,1.55,4.669-1.892c-0.52-3.928,0.248-7.402,0.998-9.212
			c0.773-1.882,3.934-4.19,8.072,0.23c7.853,8.401,24.058,23.39,35.001,25.097c11.334,1.751,23.81-2.002,23.287-16.117
			c-0.154-4.229-3.817-18.175-10.062-23.971c-3.032-2.816,12.483-1.777,22.561,0.969c8.171,2.253,15.872,14.93,18.464,21.303
			c3.618,8.875,8.556,12.17,17.854,8.941c2.513-0.875,10.243-4.114,13.345-5.641c3.103-1.525,1.378-5.104-3.872-4.704
			c-6.537,0.487-11.673-2.947-13.199-7.532c-3.108-9.282-8.88-22.379-14.591-26.33c-5.837-4.045-13.168-7.051-25.146-5.545
			c-15.794,1.998-30.732-2.195-35.232-11.416c-3.56-7.296-1.223-13.024,4.649-14.592c7.728-2.043,11.635,1.896,15.466,6.318
			c7.62,8.771,22.43,10.634,36.771,9.697c8.739-0.611,17.398-2.078,25.853-4.377c2.071-0.584,2.877-0.783,3.609-0.602l0.073-0.029
			c13.097-3.931,25.625-9.998,35.424-17.742c3.969-3.132,4.112-5.653,4.459-9.088C481.793,262.118,480.842,261.54,477.174,264.01z"
			/>
	</g>
	<g>
		<path d="M39.288,316.076H0v38.191h41.439c24.221,0,25.511-10.588,25.511-14.355v-9.113
			C66.956,316.695,49.076,316.076,39.288,316.076z M57.801,339.13c-0.216,6.826-2.373,11.306-18.513,11.306H9.151v-30.533h31.64
			c15.385,0,17.004,7.079,17.004,9.213L57.801,339.13z"/>
		<path d="M99.409,325.715c-22.164,0-26.48,2.524-26.48,14.463c0,11.883,4.316,14.41,26.48,14.41
			c22.164,0,26.495-2.527,26.495-14.41C125.904,328.23,121.579,325.715,99.409,325.715z M99.409,351.147
			c-16.021,0-17.165-1.167-17.165-10.97c0-9.846,1.144-11.025,17.165-11.025c16.021,0,17.168,1.168,17.168,11.025
			C116.577,349.969,115.442,351.147,99.409,351.147z"/>
		<path d="M157.867,325.715c-6.712,0-13.861,0.806-16.926,3.926l-0.228-0.111l0.456-3.502h-8.755v28.23h8.982v-17.564
			c-0.225-4.999,3.408-7.531,14.55-7.531c7.505,0,9.181,1.166,9.181,4.668v1.883h8.521v-2.043
			C173.637,328.402,169.348,325.715,157.867,325.715z"/>
		<rect x="179.24" y="313.117" width="8.971" height="5.498"/>
		<rect x="179.24" y="326.033" width="8.971" height="28.23"/>
		<path d="M221.867,325.715c-21.376,0-26.828,2.74-26.828,14.463c0,10.754,3.522,14.41,26.828,14.41
			c13.295,0,25.458-0.371,25.458-7.85v-1.024h-9.213v1.077c0,3.98-3.969,4.356-16.246,4.356c-16.147,0-17.51-1.132-17.51-10.056
			h42.968v-2.852C247.326,327.808,241.188,325.715,221.867,325.715z M204.357,337.647c0.674-6.499,1.249-8.495,17.51-8.495
			c13.637,0,15.685,0.488,16.138,8.495H204.357z"/>
		<path d="M278.586,325.715c-6.713,0-13.873,0.806-16.926,3.926l-0.236-0.111l0.461-3.502h-8.755v28.23h8.974v-17.564
			c-0.219-4.999,3.417-7.531,14.559-7.531c7.5,0,9.182,1.166,9.182,4.668v1.883h8.521v-2.043
			C294.355,328.402,290.063,325.715,278.586,325.715z"/>
	</g>
	<path d="M375.979,215.753c0.219-0.056,0.435-0.096,0.653-0.14C376.413,215.657,376.197,215.698,375.979,215.753z"/>
</g>
</svg>
